<svg version="1.1" xmlns="http://www.w3.org/2000/svg" xmlns:xlink="http://www.w3.org/1999/xlink" width="48" height="48"><defs><linearGradient x1="14.85102" y1="14.2299" x2="51.18022" y2="51.80133" gradientUnits="userSpaceOnUse" id="color-1"><stop offset="0" stop-color="#000000" stop-opacity="0.38"></stop><stop offset="1" stop-color="#000000" stop-opacity="0"></stop></linearGradient><filter id="dropshadow-base"><feColorMatrix type="matrix" values="0 0 0 0 0  0 0 0 0 0  0 0 0 0 0  0 0 0 .8 0"></feColorMatrix> <feOffset dx="0" dy="1"></feOffset> <feGaussianBlur stdDeviation="1"></feGaussianBlur> <feComposite in="SourceGraphic"></feComposite></filter><filter id="dropshadow-banner" x="-10%" y="-10%" width="120%" height="130%"><feColorMatrix type="matrix" values="0 0 0 0 0  0 0 0 0 0  0 0 0 0 0  0 0 0 .4 0"></feColorMatrix> <feOffset dx="0" dy="1"></feOffset> <feGaussianBlur stdDeviation="0.5"></feGaussianBlur> <feComposite in="SourceGraphic"></feComposite></filter></defs><g fill="none" fill-rule="nonzero" stroke="none" stroke-width="none" stroke-linecap="butt" stroke-linejoin="miter" stroke-miterlimit="10" stroke-dasharray="" stroke-dashoffset="0" font-family="none" font-weight="none" font-size="none" text-anchor="none" style="mix-blend-mode: normal"><path d="M7,43c-1.10457,0 -2,-0.89543 -2,-2v-34c0,-1.10457 0.89543,-2 2,-2h34c1.10457,0 2,0.89543 2,2v34c0,1.10457 -0.89543,2 -2,2z" id="base 1 5 1" fill="#0093c4" stroke-width="1"></path><path d="M14.97085,29.37274c-0.09156,-0.09156 -0.13603,-0.22103 -0.11446,-0.35049l1.54163,-9.73729l-1.24403,-1.24403c-0.02391,-0.02391 -0.0434,-0.05279 -0.05791,-0.08665c-0.04229,-0.0987 -0.04229,-0.1974 0.0141,-0.28198l2.1149,-3.31334c0.0705,-0.0846 0.16919,-0.14099 0.28198,-0.12689l10.36301,1.15615c0.06373,0.0091 0.12159,0.03585 0.16597,0.08023l0.38833,0.38833c0.0254,-0.07792 0.0323,-0.15788 0.02379,-0.24298l14.55185,14.55185v10.83437c0,1.10457 -0.89543,2 -2,2h-12.40189z" fill="url(#color-1)" stroke-width="1"></path><path transform="translate(0.55174,0.55174) scale(0.97701,0.97701)" d="M23.906,33.84495c-0.11545,0.08659 -0.27419,0.11545 -0.4185,0.04329l-8.62979,-4.31489c-0.15874,-0.08659 -0.24533,-0.25976 -0.21647,-0.43293l1.68844,-10.66457l9.36577,1.03904c0.02886,0 0.04329,0 0.07216,0c0.21647,0 0.43293,-0.11545 0.54838,-0.30305l0.1876,-0.30305zM32.78111,31.98334l-8.06697,1.99149c-0.15874,0.04329 -0.31748,0.02886 -0.46179,-0.02886l2.74191,-15.81647l1.45754,-2.30897c0.08659,-0.12988 0.11545,-0.25976 0.10102,-0.40407c0.07216,0.10102 0.12988,0.21647 0.15874,0.33191l4.61795,15.26808c0.12988,0.4185 -0.11545,0.86586 -0.54838,0.96688zM31.87196,30.62682l-3.00167,-1.2555l-0.96688,-9.69769l-0.25976,0.01443l0.96688,9.71212l-2.45328,2.52544l0.17317,0.15874l2.43885,-2.48215l3.00167,1.24107zM14.88657,17.81202c-0.04329,-0.10102 -0.04329,-0.20204 0.01443,-0.28862l2.16466,-3.3913c0.07216,-0.08659 0.17317,-0.14431 0.28862,-0.12988l10.60685,1.18335c0.10102,0.01443 0.1876,0.07216 0.2309,0.17317c0.04329,0.10102 0.04329,0.20204 -0.01443,0.28862l-2.15023,3.3913c-0.07216,0.08659 -0.17317,0.14431 -0.28862,0.12988l-10.60685,-1.18335c-0.11545,-0.01443 -0.20204,-0.07216 -0.24533,-0.17317z" fill="none" stroke-width="0"></path><path d="M23.90816,33.61862c-0.11279,0.0846 -0.26789,0.11279 -0.40888,0.0423l-8.4314,-4.2157c-0.15509,-0.0846 -0.23969,-0.25379 -0.21149,-0.42298l1.64962,-10.4194l9.15046,1.01515c0.0282,0 0.0423,0 0.0705,0c0.21149,0 0.42298,-0.11279 0.53577,-0.29609l0.18329,-0.29609zM32.57924,31.79981l-7.88152,1.94571c-0.15509,0.0423 -0.31019,0.0282 -0.45118,-0.0282l2.67887,-15.45286l1.42403,-2.25589c0.0846,-0.12689 0.11279,-0.25379 0.0987,-0.39478c0.0705,0.0987 0.12689,0.21149 0.15509,0.32428l4.51178,14.91709c0.12689,0.40888 -0.11279,0.84596 -0.53577,0.94465zM31.69099,30.47447l-2.93266,-1.22664l-0.94465,-9.47475l-0.25379,0.0141l0.94465,9.48885l-2.39689,2.46738l0.16919,0.15509l2.38279,-2.42508l2.93266,1.21254zM15.09608,17.95427c-0.0423,-0.0987 -0.0423,-0.19739 0.0141,-0.28199l2.1149,-3.31334c0.0705,-0.0846 0.16919,-0.14099 0.28199,-0.12689l10.363,1.15614c0.0987,0.0141 0.18329,0.0705 0.22559,0.16919c0.0423,0.0987 0.0423,0.19739 -0.0141,0.28199l-2.1008,3.31334c-0.0705,0.0846 -0.16919,0.14099 -0.28199,0.12689l-10.363,-1.15614c-0.11279,-0.0141 -0.19739,-0.0705 -0.23969,-0.16919z" fill="#ffffff" stroke-width="0"></path><path d="M2,24c0,-12.15026 9.84974,-22 22,-22c12.15026,0 22,9.84974 22,22c0,12.15026 -9.84974,22 -22,22c-12.15026,0 -22,-9.84974 -22,-22z" id="base 1 1 1" fill="none" stroke-width="1"></path><g fill="#000000" stroke-width="1" font-family="Roboto, sans-serif" font-weight="400" font-size="14" text-anchor="start"><g><g></g></g></g><rect x="2" y="2" width="44" height="22" fill="none" stroke-width="1"></rect><path d="M2,24v-22h44v22z" fill="none" stroke-width="1"></path><path d="M2,24v-22h44v22z" fill="none" stroke-width="1"></path><path d="M2,24v-22h44v22z" fill="none" stroke-width="1"></path><path d="M2,24v-22h44v22z" fill="none" stroke-width="1"></path></g></svg>